<svg width="360" height="800" viewBox="0 0 360 800" fill="none" xmlns="http://www.w3.org/2000/svg">
<g clip-path="url(#clip0_1515_11092)">
<rect width="360" height="800" fill="#093690"/>
<g clip-path="url(#clip1_1515_11092)">
<path d="M127.084 691.478H112.963C112.852 691.478 112.742 691.498 112.639 691.539C112.537 691.579 112.444 691.638 112.365 691.713C112.287 691.788 112.224 691.876 112.182 691.974C112.139 692.071 112.118 692.176 112.118 692.282V703.758H113.899V693.172H120.727V703.758H122.458V693.172H126.739C128.42 693.172 129.262 694.019 129.262 695.689V703.758H131.067V695.407C131.066 692.795 129.731 691.478 127.084 691.478Z" fill="white"/>
<path d="M142.449 691.478H137.923C135.226 691.478 133.89 692.795 133.89 695.407V699.83C133.89 702.441 135.226 703.758 137.923 703.758H145.492V702.088H138.145C136.488 702.088 135.672 701.288 135.672 699.665V698.418H142.647C144.825 698.418 145.912 697.523 145.912 695.713V694.724C145.912 692.56 144.75 691.478 142.449 691.478ZM144.156 695.407C144.156 696.489 143.488 697.03 142.152 697.03H135.672V695.454C135.672 693.807 136.513 692.96 138.219 692.96H142.128C143.488 692.96 144.156 693.595 144.156 694.842L144.156 695.407Z" fill="white"/>
<path d="M159.1 699.547C159.1 701.217 158.232 702.064 156.527 702.064H152.989C151.307 702.064 150.441 701.217 150.441 699.547V691.501H148.635V699.83C148.635 702.441 149.971 703.758 152.667 703.758H156.848C159.52 703.758 160.881 702.441 160.881 699.83V691.501H159.1V699.547Z" fill="white"/>
<path d="M172.426 690.996H168.17C165.201 690.996 163.632 692.522 163.632 695.407V708.405H166.452V695.689C166.452 694.297 167.082 693.677 168.493 693.677H172.079C173.508 693.677 174.145 694.297 174.145 695.689V699.547C174.145 700.955 173.508 701.583 172.079 701.583H167.779V704.24H172.426C175.395 704.24 176.964 702.715 176.964 699.83V695.407C176.965 692.521 175.395 690.996 172.426 690.996Z" fill="white"/>
<path d="M182.055 685.938H179.236V704.24H182.055V685.938Z" fill="white"/>
<path d="M193.034 690.996H184.934V693.63H192.812C194.156 693.63 194.754 694.229 194.754 695.571V699.782C194.754 701.192 194.152 701.794 192.737 701.794H188.804C187.738 701.794 187.283 701.375 187.283 700.393V699.83C187.283 699.237 187.464 698.688 188.78 698.688H193.427V696.336H188.31C185.193 696.336 184.538 698.083 184.538 699.547V700.512C184.538 702.951 185.903 704.24 188.483 704.24H193.035C196.004 704.24 197.573 702.715 197.573 699.83V695.407C197.574 692.521 196.004 690.996 193.034 690.996Z" fill="white"/>
<path d="M210.571 700.923H204.918C203.506 700.923 202.877 700.347 202.877 699.053V690.997H200.057V699.312C200.057 702.044 201.627 703.488 204.595 703.488H210.57V703.57C210.57 705.092 209.933 705.77 208.504 705.77H202.432V708.404H208.851C211.82 708.404 213.389 706.798 213.389 703.758V690.996H210.571V700.923Z" fill="white"/>
<path d="M224.356 696.242H219.161C218.305 696.242 218.134 695.914 218.134 695.383V694.418C218.134 693.832 218.329 693.442 219.285 693.442H227.113V690.996H218.84C216.598 690.996 215.364 692.128 215.364 694.184V695.572C215.364 697.506 216.554 698.571 218.716 698.571H223.91C224.745 698.571 224.913 698.9 224.913 699.43V700.818C224.913 701.421 224.704 701.794 223.662 701.794H215.488V704.24H224.133C226.422 704.24 227.683 703.1 227.683 701.029V699.241C227.682 697.307 226.501 696.242 224.356 696.242Z" fill="white"/>
<path d="M233.596 686.996H230.777V704.24H233.596V693.489H236.392V690.996H233.596V686.996Z" fill="white"/>
<path d="M256.82 686.996H254V704.24H256.82V693.489H259.615V690.996H256.82V686.996Z" fill="white"/>
<path d="M263.697 691.113H260.878V704.24H263.697V691.113Z" fill="white"/>
<path d="M263.697 685.938H260.878V689.631H263.697V685.938Z" fill="white"/>
<path d="M274.858 690.996H270.48C267.511 690.996 265.942 692.522 265.942 695.407V699.83C265.942 702.715 267.512 704.24 270.48 704.24H274.858C277.827 704.24 279.397 702.715 279.397 699.83V695.407C279.397 692.521 277.828 690.996 274.858 690.996ZM276.578 699.548C276.578 700.956 275.941 701.583 274.512 701.583H270.826C269.398 701.583 268.761 700.956 268.761 699.548V695.689C268.761 694.297 269.398 693.677 270.826 693.677H274.512C275.941 693.677 276.578 694.297 276.578 695.689V699.548Z" fill="white"/>
<path d="M290.461 690.996H282.512C282.288 690.996 282.073 691.081 281.915 691.232C281.756 691.382 281.667 691.587 281.667 691.8V704.241H284.487V693.677H290.114C291.543 693.677 292.18 694.297 292.18 695.689V704.24H294.999V695.407C295 692.521 293.43 690.996 290.461 690.996Z" fill="white"/>
<path d="M247.079 690.996H238.978V693.63H246.857C248.201 693.63 248.799 694.229 248.799 695.571V699.782C248.799 701.192 248.197 701.794 246.782 701.794H242.849C241.783 701.794 241.328 701.375 241.328 700.393V699.83C241.328 699.237 241.509 698.688 242.825 698.688H247.473V696.336H242.355C239.237 696.336 238.583 698.083 238.583 699.547V700.512C238.583 702.951 239.948 704.24 242.528 704.24H247.079C250.048 704.24 251.617 702.715 251.617 699.83V695.407C251.618 692.521 250.048 690.996 247.079 690.996Z" fill="white"/>
<path d="M77.6014 707.939C76.8484 707.615 76.1068 707.27 75.3765 706.903C73.8638 706.144 72.4161 705.273 71.0467 704.298C70.9866 704.256 70.9152 704.23 70.8406 704.224C70.766 704.218 70.6912 704.232 70.6244 704.264C70.5576 704.296 70.5015 704.346 70.4624 704.406C70.4234 704.467 70.4028 704.537 70.4031 704.608C70.4507 708.86 71.7141 711.853 74.8045 711.356C76.3196 711.113 77.1984 709.841 77.8097 708.435C77.8497 708.343 77.8502 708.239 77.8113 708.147C77.7724 708.054 77.6971 707.98 77.6014 707.939Z" fill="white"/>
<path d="M100.39 698.423C99.4538 699.762 98.3841 701.012 97.196 702.156C96.5235 702.815 95.816 703.44 95.0816 704.036C95.003 704.099 94.9529 704.189 94.9416 704.286C94.9304 704.383 94.9588 704.481 95.0211 704.559C96.2359 706.067 97.7706 707.662 99.7057 707.351C103.074 706.809 102.959 703.027 101.105 698.491C101.078 698.426 101.032 698.368 100.973 698.326C100.914 698.283 100.843 698.257 100.77 698.25C100.696 698.242 100.621 698.255 100.554 698.286C100.487 698.316 100.431 698.364 100.39 698.423Z" fill="white"/>
<path d="M100.879 708.745C100.472 708.575 100.021 708.522 99.5818 708.593C99.058 708.647 98.5554 708.819 98.1161 709.096C98.008 709.173 97.8971 709.245 97.7825 709.312C97.7756 709.317 97.7686 709.32 97.7623 709.324C97.6504 709.376 97.5358 709.424 97.4205 709.469C97.4116 709.471 97.4029 709.474 97.3938 709.477C97.2459 709.521 97.097 709.56 96.9471 709.595C96.9322 709.598 96.9172 709.601 96.9023 709.604C96.5591 709.66 96.2132 709.699 95.8658 709.722C95.8255 709.723 95.7839 709.725 95.7432 709.725C95.5349 709.729 95.3265 709.729 95.1179 709.724C94.7234 709.714 94.3293 709.69 93.9364 709.654C93.8418 709.645 93.7472 709.634 93.6526 709.625C93.4301 709.596 93.2082 709.564 92.987 709.529C92.5223 709.454 92.0602 709.366 91.6008 709.264C90.5742 709.035 89.5612 708.755 88.5661 708.423C85.609 707.392 82.7868 706.04 80.1554 704.394C80.0411 704.323 79.9293 704.248 79.8158 704.176C80.3368 704.15 83.9945 704.175 86.27 703.809C87.7598 703.528 89.2294 703.158 90.67 702.701C90.2908 703.037 89.9058 703.367 89.5151 703.691C88.91 704.19 89.1944 705.023 89.5756 705.441C89.8081 705.727 90.1323 705.934 90.4991 706.029C90.7777 706.084 91.1381 706.107 91.3975 705.893C93.9698 703.786 96.2711 701.398 98.2533 698.778C99.8718 696.613 101.228 694.264 102.022 691.832C102.657 689.881 102.918 687.739 102.26 685.932C101.898 684.914 101.27 684.001 100.435 683.277C99.4695 682.441 98.176 682.153 96.7825 682.038C93.7107 681.783 91.1837 682.826 88.3093 684.191C87.822 684.423 85.0913 685.851 86.2801 686.644C87.197 687.217 87.6879 686.853 88.0201 686.705C88.6232 686.437 92.4794 684.727 94.7246 684.346C95.3094 684.264 95.9001 684.228 96.4911 684.238C96.6326 684.241 96.7738 684.248 96.9146 684.257C96.9836 684.262 97.0524 684.268 97.1211 684.275L97.1595 684.279C97.4188 684.326 97.678 684.367 97.9299 684.434C98.0455 684.465 98.1591 684.5 98.2712 684.537C98.3194 684.556 98.368 684.575 98.4156 684.597C98.5253 684.646 98.6325 684.698 98.7371 684.754C98.7724 684.773 98.8067 684.792 98.8414 684.811C98.9913 684.923 99.1379 685.037 99.2805 685.157C99.341 685.222 99.4015 685.291 99.457 685.36C99.4735 685.38 99.5029 685.419 99.5312 685.457C99.5481 685.484 99.5639 685.508 99.5729 685.524C99.6536 685.658 99.7218 685.797 99.7877 685.937C99.7908 685.945 99.794 685.953 99.7968 685.961C99.8286 686.05 99.8577 686.139 99.8842 686.23C99.9326 686.394 99.9689 686.561 100.004 686.73C100.006 686.749 100.009 686.768 100.011 686.786C100.023 686.887 100.033 686.988 100.041 687.089C100.057 687.298 100.063 687.508 100.059 687.719C100.056 687.916 100.041 688.114 100.028 688.312C100.023 688.346 100.019 688.381 100.015 688.415C99.9984 688.54 99.9796 688.664 99.9584 688.789C99.7623 689.863 99.4423 690.912 99.0044 691.919C98.8121 692.353 98.601 692.783 98.3791 693.207C97.7208 692.133 97.0076 691.067 96.2587 690.04C96.2587 690.04 95.2416 688.833 95.1435 688.783C94.4669 688.437 91.5332 688.577 90.7321 689.335C90.6528 689.409 89.8785 690.566 89.7639 690.584L89.0711 690.696C88.0401 690.119 86.9845 689.583 85.9045 689.089C83.2888 687.896 80.5064 686.918 77.6478 686.41C75.1694 685.968 72.5363 685.829 70.0863 686.499C68.8912 686.812 67.779 687.361 66.8223 688.111C66.1189 688.683 65.5875 689.422 65.2823 690.253C64.7277 691.692 65.0655 693.361 65.6454 694.742C66.4626 696.687 67.7855 698.446 69.2355 700.007C71.113 701.981 73.218 703.749 75.5108 705.275C78.0435 707.01 80.7694 708.475 83.6391 709.643C86.3176 710.76 89.1486 711.511 92.0481 711.875C94.4346 712.148 96.9896 712.013 99.2083 711.065C99.6964 710.862 100.16 710.609 100.592 710.312C100.874 710.113 101.242 709.831 101.305 709.47C101.326 709.322 101.296 709.171 101.219 709.04C101.143 708.909 101.023 708.806 100.879 708.745ZM69.9574 688.815L69.9152 688.847C69.8979 688.853 69.9201 688.838 69.9574 688.815ZM72.0726 693.931C71.8027 694.855 71.5601 695.792 71.3489 696.73C70.9457 696.206 70.5721 695.661 70.2297 695.099C69.5548 693.931 69.0072 692.646 68.9217 691.305C68.9157 690.81 68.9975 690.316 69.1637 689.846C69.2687 689.626 69.3959 689.416 69.5433 689.219C69.6 689.158 69.6548 689.095 69.716 689.037C69.7644 688.991 69.8144 688.947 69.8652 688.903C69.9477 688.846 70.0306 688.791 70.1167 688.739C70.0439 688.78 69.9929 688.807 69.9602 688.824L69.9729 688.814C69.984 688.804 69.9919 688.797 69.9971 688.792C70.0173 688.782 70.0375 688.771 70.0562 688.762C70.0939 688.744 70.1315 688.726 70.1692 688.708C70.221 688.679 70.2732 688.651 70.3249 688.621C70.27 688.652 70.224 688.678 70.1811 688.703C70.2843 688.655 70.3898 688.612 70.4957 688.571C70.558 688.552 70.62 688.532 70.6829 688.515C70.8071 688.482 70.9328 688.454 71.0584 688.426C71.1407 688.413 71.223 688.399 71.3057 688.388C71.4937 688.362 71.6825 688.342 71.8717 688.326C71.9433 688.321 72.0151 688.316 72.0869 688.311H72.0903C72.534 688.3 72.9768 688.31 73.4189 688.337C73.6414 688.351 73.8633 688.368 74.0845 688.39C74.1982 688.401 74.3116 688.415 74.4251 688.426C73.7761 688.359 74.3174 688.415 74.4707 688.436C74.9763 688.506 75.4792 688.594 75.9788 688.697C77.1314 688.939 78.2676 689.247 79.3811 689.619C80.9418 690.16 82.4643 690.795 83.939 691.521L78.3936 692.414C78.2801 692.432 77.1486 691.582 77.0481 691.536C76.0296 691.071 73.2109 691.857 72.6916 692.395C72.6159 692.473 72.0726 693.931 72.0726 693.931ZM78.2991 696.67C78.308 696.797 78.2719 696.923 78.1966 697.027L77.5796 697.886C77.5564 697.918 77.5265 697.946 77.4917 697.966C77.4569 697.987 77.4179 698.001 77.3773 698.006C77.3367 698.012 77.2953 698.01 77.2557 697.999C77.2161 697.989 77.1791 697.971 77.1472 697.947L76.3202 697.313C76.2304 697.244 76.1636 697.152 76.1278 697.047L75.8035 696.101C75.777 696.024 75.7683 695.942 75.7781 695.861C75.7878 695.78 75.8158 695.702 75.8601 695.633C75.9043 695.563 75.9638 695.504 76.0345 695.458C76.1052 695.412 76.1855 695.381 76.2698 695.368L77.5369 695.164C77.6189 695.151 77.7029 695.154 77.7835 695.173C77.8641 695.193 77.9395 695.228 78.0048 695.277C78.0701 695.326 78.1238 695.388 78.1626 695.458C78.2014 695.528 78.2243 695.605 78.2299 695.684L78.2991 696.67ZM75.8479 699.923L74.8527 700.231C74.7714 700.257 74.6854 700.265 74.6004 700.255C74.5155 700.246 74.4336 700.22 74.3604 700.178C74.2873 700.135 74.2245 700.079 74.1764 700.012C74.1284 699.944 74.0961 699.868 74.0818 699.788L73.8672 698.583C73.8533 698.505 73.8568 698.425 73.8774 698.348C73.8979 698.272 73.9352 698.2 73.9867 698.138C74.0382 698.076 74.1028 698.025 74.1764 697.988C74.25 697.951 74.3308 697.929 74.4138 697.924L75.4509 697.858C75.5841 697.849 75.7164 697.883 75.8265 697.955L76.7297 698.542C76.7635 698.564 76.7923 698.592 76.814 698.625C76.8358 698.658 76.8501 698.695 76.8561 698.734C76.8621 698.773 76.8596 698.812 76.8488 698.85C76.838 698.887 76.8192 698.922 76.7934 698.953L76.1278 699.739C76.0553 699.825 75.958 699.889 75.8479 699.923ZM78.7291 701.869L77.4622 702.072C77.3802 702.086 77.2962 702.082 77.2156 702.063C77.1351 702.043 77.0597 702.008 76.9944 701.959C76.9291 701.91 76.8753 701.848 76.8365 701.778C76.7977 701.708 76.7748 701.631 76.7692 701.553L76.6996 700.566C76.6906 700.44 76.7267 700.314 76.8021 700.209L77.4191 699.35C77.4422 699.318 77.4721 699.291 77.5069 699.27C77.5417 699.249 77.5806 699.236 77.6212 699.23C77.6618 699.224 77.7032 699.227 77.7428 699.237C77.7824 699.247 77.8193 699.265 77.8513 699.289L78.6782 699.922C78.7681 699.991 78.8349 700.083 78.8707 700.188L79.195 701.134C79.2216 701.212 79.2304 701.293 79.2207 701.374C79.2111 701.455 79.1832 701.533 79.139 701.603C79.0947 701.673 79.0352 701.732 78.9645 701.778C78.8938 701.824 78.8135 701.855 78.7291 701.869ZM79.1728 699.281L78.2696 698.694C78.2357 698.672 78.207 698.644 78.1853 698.611C78.1635 698.578 78.1492 698.541 78.1432 698.502C78.1372 698.464 78.1397 698.424 78.1505 698.387C78.1613 698.349 78.1801 698.314 78.2059 698.283L78.8725 697.497C78.9448 697.411 79.0417 697.348 79.1514 697.314L80.1466 697.005C80.2279 696.98 80.314 696.972 80.3989 696.981C80.4839 696.991 80.5657 697.017 80.6389 697.059C80.7121 697.101 80.7748 697.158 80.8229 697.225C80.871 697.293 80.9032 697.369 80.9174 697.449L81.132 698.654C81.1459 698.732 81.1425 698.812 81.1219 698.889C81.1013 698.965 81.064 699.037 81.0125 699.099C80.961 699.161 80.8963 699.212 80.8228 699.249C80.7492 699.286 80.6683 699.308 80.5853 699.313L79.5481 699.379C79.4148 699.388 79.2823 699.353 79.1722 699.281H79.1728ZM93.5961 709.619C93.4953 709.608 93.3438 709.587 93.627 709.622L93.5961 709.619ZM93.6905 709.63L93.6808 709.629L93.8293 709.648C93.7817 709.641 93.7361 709.636 93.6899 709.63H93.6905ZM97.0834 709.573C97.03 709.582 96.9765 709.592 96.9221 709.601C96.9176 709.601 96.9134 709.601 96.9092 709.603C97.4007 709.499 97.2236 709.548 97.0828 709.573L97.0834 709.573Z" fill="white"/>
</g>
<g clip-path="url(#clip2_1515_11092)">
<path d="M127 483.241L133.456 473.241L238.5 502.741L306.767 485.741L276.5 465.741L309.5 402.741L297 388.741L313 296.241L300.5 276.741L-20.0329 -40L-360 51.0939L95.2821 505.662L127 483.241Z" fill="#0B1740"/>
<path d="M128.656 479.221C122.821 476.606 117.074 473.818 111.414 470.856C99.6917 464.724 88.4726 457.691 77.8602 449.82C77.3942 449.478 76.8411 449.271 76.263 449.222C75.685 449.174 75.1046 449.285 74.587 449.545C74.0693 449.805 73.6348 450.202 73.332 450.693C73.0292 451.183 72.8701 451.747 72.8725 452.322C73.2414 486.66 83.0324 510.832 106.981 506.82C118.723 504.851 125.533 494.582 130.271 483.228C130.58 482.483 130.585 481.648 130.283 480.9C129.982 480.152 129.398 479.55 128.656 479.221Z" fill="#0E43AE"/>
<path d="M305.262 402.373C298.004 413.185 289.714 423.281 280.507 432.522C275.296 437.838 269.812 442.888 264.121 447.703C263.512 448.213 263.124 448.935 263.037 449.72C262.949 450.505 263.17 451.294 263.652 451.923C273.067 464.108 284.96 476.984 299.956 474.47C326.059 470.094 325.168 439.556 310.799 402.925C310.589 402.394 310.235 401.931 309.777 401.586C309.318 401.241 308.773 401.029 308.201 400.972C307.628 400.915 307.051 401.016 306.533 401.263C306.014 401.51 305.575 401.894 305.262 402.373Z" fill="#0E43AE"/>
<path d="M309.051 485.735C305.893 484.359 302.397 483.931 298.996 484.505C294.937 484.939 291.042 486.331 287.637 488.565C286.8 489.185 285.94 489.767 285.052 490.312C284.999 490.346 284.944 490.376 284.896 490.408C284.028 490.828 283.141 491.211 282.246 491.575C282.178 491.597 282.11 491.621 282.04 491.643C280.894 491.995 279.74 492.312 278.578 492.593C278.462 492.621 278.347 492.644 278.231 492.672C275.571 493.121 272.89 493.437 270.198 493.618C269.886 493.629 269.564 493.641 269.248 493.648C267.634 493.679 266.019 493.674 264.403 493.634C261.345 493.558 258.291 493.363 255.246 493.068C254.513 492.999 253.78 492.913 253.047 492.836C251.323 492.604 249.603 492.345 247.889 492.061C244.288 491.457 240.707 490.745 237.146 489.925C229.191 488.077 221.34 485.809 213.628 483.132C190.712 474.806 168.841 463.887 148.449 450.592C147.563 450.019 146.697 449.416 145.817 448.835C149.854 448.62 178.2 448.821 195.835 445.866C207.38 443.602 218.769 440.615 229.933 436.921C226.994 439.631 224.011 442.297 220.983 444.918C216.293 448.945 218.497 455.676 221.452 459.047C223.253 461.359 225.766 463.027 228.609 463.798C230.767 464.24 233.561 464.425 235.571 462.697C255.505 445.687 273.339 426.399 288.7 405.236C301.244 387.753 311.755 368.789 317.906 349.148C322.831 333.392 324.854 316.091 319.749 301.499C316.948 293.279 312.082 285.901 305.611 280.059C298.125 273.305 288.102 270.982 277.303 270.052C253.497 267.995 233.914 276.413 211.639 287.441C207.862 289.312 186.7 300.845 195.913 307.246C203.018 311.873 206.823 308.938 209.397 307.742C214.071 305.573 243.955 291.767 261.355 288.688C265.886 288.03 270.465 287.74 275.044 287.82C276.141 287.846 277.235 287.898 278.326 287.975C278.861 288.015 279.394 288.062 279.927 288.116L280.224 288.149C282.234 288.533 284.242 288.861 286.195 289.403C287.09 289.653 287.97 289.932 288.839 290.234C289.213 290.389 289.59 290.544 289.959 290.72C290.809 291.113 291.639 291.533 292.45 291.983C292.724 292.138 292.989 292.293 293.258 292.447C294.419 293.354 295.556 294.269 296.661 295.236C297.13 295.769 297.599 296.32 298.029 296.876C298.157 297.041 298.385 297.36 298.604 297.665C298.735 297.88 298.857 298.077 298.927 298.201C299.553 299.285 300.081 300.405 300.592 301.541C300.615 301.606 300.64 301.669 300.662 301.734C300.908 302.448 301.134 303.171 301.339 303.903C301.714 305.229 301.996 306.581 302.264 307.94C302.285 308.095 302.305 308.25 302.324 308.395C302.419 309.207 302.496 310.023 302.555 310.843C302.675 312.526 302.721 314.222 302.694 315.93C302.672 317.524 302.554 319.12 302.451 320.72C302.418 320.997 302.386 321.276 302.352 321.553C302.225 322.558 302.079 323.564 301.914 324.571C300.395 333.241 297.915 341.719 294.521 349.851C293.032 353.355 291.395 356.822 289.676 360.253C284.574 351.578 279.047 342.971 273.243 334.671C273.243 334.671 265.361 324.924 264.601 324.52C259.357 321.732 236.623 322.859 230.414 328.977C229.8 329.581 223.799 338.92 222.911 339.068L217.542 339.968C209.552 335.309 201.372 330.984 193.002 326.994C172.731 317.363 151.169 309.464 129.016 305.356C109.809 301.793 89.4034 300.667 70.417 306.075C61.1558 308.606 52.5369 313.043 45.1221 319.097C39.6712 323.717 35.5534 329.686 33.1882 336.397C28.8898 348.015 31.5079 361.492 36.0017 372.646C42.3352 388.357 52.5873 402.561 63.824 415.164C78.3735 431.109 94.6864 445.381 112.455 457.712C132.083 471.723 153.207 483.551 175.446 492.981C196.203 502.002 218.143 508.07 240.613 511.005C259.107 513.216 278.908 512.119 296.101 504.465C299.884 502.824 303.478 500.786 306.822 498.386C309.011 496.777 311.863 494.504 312.351 491.586C312.515 490.388 312.282 489.169 311.687 488.114C311.092 487.059 310.167 486.224 309.051 485.735ZM69.4182 324.785L69.0915 325.036C68.9571 325.089 69.129 324.963 69.4182 324.785ZM85.8099 366.096C83.7186 373.555 81.8382 381.123 80.2017 388.699C77.0772 384.466 74.182 380.07 71.5283 375.532C66.2983 366.096 62.0547 355.717 61.3919 344.892C61.3454 340.888 61.9795 336.905 63.2676 333.11C64.0813 331.331 65.0665 329.635 66.2092 328.044C66.6485 327.55 67.0736 327.04 67.5472 326.574C67.9224 326.204 68.31 325.846 68.7039 325.49C69.3432 325.034 69.9856 324.585 70.653 324.167C70.0887 324.495 69.6933 324.718 69.4401 324.855L69.5386 324.771C69.6245 324.694 69.6855 324.638 69.7261 324.596C69.8824 324.512 70.0387 324.427 70.1841 324.353C70.4764 324.209 70.7671 324.061 71.0594 323.919C71.4611 323.68 71.8659 323.454 72.2661 323.211C71.8409 323.467 71.4846 323.676 71.1516 323.874C71.9519 323.49 72.7694 323.144 73.59 322.808C74.073 322.653 74.5528 322.498 75.0405 322.362C76.0033 322.088 76.9771 321.865 77.9509 321.639C78.5886 321.532 79.2263 321.425 79.8672 321.329C81.324 321.123 82.787 320.962 84.2531 320.835C84.808 320.788 85.3644 320.751 85.9209 320.714H85.9475C89.3862 320.622 92.8171 320.705 96.2433 320.923C97.9679 321.031 99.6872 321.174 101.401 321.351C102.283 321.44 103.161 321.549 104.041 321.643C99.0115 321.098 103.207 321.549 104.395 321.721C108.313 322.288 112.21 322.999 116.082 323.829C125.014 325.781 133.82 328.268 142.449 331.276C154.543 335.639 166.342 340.771 177.771 346.638L134.796 353.843C133.916 353.99 125.147 347.128 124.369 346.756C116.475 343.002 94.6318 349.351 90.6069 353.693C90.0208 354.323 85.8099 366.096 85.8099 366.096ZM134.063 388.217C134.132 389.24 133.853 390.256 133.269 391.102L128.487 398.037C128.308 398.297 128.076 398.518 127.806 398.685C127.536 398.852 127.235 398.962 126.92 399.008C126.605 399.054 126.284 399.035 125.977 398.952C125.67 398.869 125.384 398.724 125.136 398.527L118.728 393.407C118.032 392.851 117.514 392.107 117.237 391.265L114.723 383.621C114.518 382.997 114.451 382.336 114.526 381.683C114.602 381.031 114.819 380.402 115.162 379.84C115.505 379.279 115.966 378.796 116.514 378.427C117.062 378.058 117.684 377.81 118.337 377.701L128.156 376.052C128.792 375.946 129.443 375.972 130.067 376.13C130.692 376.289 131.276 376.575 131.782 376.97C132.288 377.366 132.705 377.863 133.006 378.428C133.306 378.993 133.484 379.615 133.527 380.252L134.063 388.217ZM115.067 414.486L107.355 416.976C106.725 417.18 106.058 417.247 105.4 417.172C104.741 417.097 104.107 416.882 103.54 416.542C102.973 416.202 102.487 415.745 102.114 415.202C101.742 414.659 101.492 414.043 101.381 413.395L99.7179 403.664C99.6103 403.034 99.6371 402.389 99.7965 401.77C99.956 401.151 100.245 400.572 100.644 400.07C101.043 399.569 101.544 399.156 102.114 398.858C102.684 398.56 103.311 398.384 103.954 398.341L111.991 397.806C113.023 397.737 114.048 398.015 114.901 398.593L121.901 403.332C122.163 403.51 122.386 403.74 122.554 404.007C122.723 404.274 122.834 404.573 122.88 404.885C122.927 405.197 122.907 405.515 122.824 405.819C122.74 406.123 122.594 406.406 122.395 406.652L117.237 413.003C116.674 413.696 115.92 414.211 115.067 414.486ZM137.395 430.198L127.578 431.845C126.942 431.951 126.291 431.925 125.667 431.767C125.042 431.609 124.458 431.323 123.952 430.927C123.446 430.532 123.029 430.035 122.729 429.47C122.428 428.905 122.251 428.284 122.207 427.647L121.668 419.681C121.598 418.659 121.877 417.642 122.462 416.797L127.243 409.86C127.423 409.6 127.655 409.379 127.924 409.212C128.194 409.045 128.495 408.935 128.81 408.889C129.125 408.843 129.445 408.862 129.752 408.945C130.059 409.028 130.345 409.173 130.593 409.37L137.001 414.482C137.698 415.038 138.216 415.783 138.493 416.625L141.006 424.268C141.212 424.893 141.281 425.554 141.206 426.208C141.131 426.861 140.915 427.49 140.572 428.053C140.229 428.616 139.768 429.099 139.22 429.469C138.672 429.839 138.049 430.088 137.395 430.198ZM140.834 409.304L133.835 404.565C133.572 404.387 133.35 404.157 133.181 403.89C133.013 403.623 132.902 403.324 132.855 403.012C132.809 402.701 132.828 402.383 132.912 402.079C132.995 401.774 133.141 401.491 133.341 401.245L138.507 394.894C139.067 394.204 139.818 393.691 140.668 393.416L148.38 390.925C149.011 390.722 149.678 390.655 150.336 390.73C150.994 390.805 151.629 391.02 152.196 391.36C152.763 391.7 153.249 392.158 153.622 392.701C153.994 393.244 154.244 393.861 154.354 394.508L156.018 404.238C156.125 404.868 156.098 405.513 155.939 406.132C155.779 406.751 155.49 407.33 155.091 407.832C154.692 408.334 154.191 408.747 153.621 409.044C153.05 409.342 152.423 409.518 151.78 409.561L143.743 410.095C142.71 410.164 141.683 409.885 140.829 409.304H140.834ZM252.609 492.789C251.828 492.704 250.654 492.532 252.849 492.816L252.609 492.789ZM253.341 492.881L253.266 492.87L254.416 493.025C254.047 492.968 253.694 492.929 253.336 492.881H253.341ZM279.635 492.416C279.22 492.494 278.806 492.571 278.384 492.644C278.35 492.644 278.317 492.644 278.284 492.658C282.093 491.823 280.721 492.219 279.63 492.421L279.635 492.416Z" fill="#0E43AE"/>
</g>
</g>
<defs>
<clipPath id="clip0_1515_11092">
<rect width="360" height="800" fill="white"/>
</clipPath>
<clipPath id="clip1_1515_11092">
<rect width="230" height="30" fill="white" transform="translate(65 682)"/>
</clipPath>
<clipPath id="clip2_1515_11092">
<rect width="360" height="512" fill="white"/>
</clipPath>
</defs>
</svg>
